<svg width="106" height="108" viewBox="0 0 106 108" fill="none" xmlns="http://www.w3.org/2000/svg">
<path d="M49.4821 40.1583L48.957 28.1652C59.669 33.2411 81.0511 43.5609 80.883 44.149C80.715 44.7371 80.813 45.3742 80.883 45.6193L88.3394 60.8472L49.4821 40.1583Z" fill="#CCE5FB"/>
<path d="M75.9969 27.3951L84.3487 45.8105L48.957 28.1671L75.9969 27.3951Z" fill="#2F7BC7"/>
<path d="M62.1953 25.0593L44.5371 0.16687L54.6912 26.9469L55.0063 27.9971L62.1953 25.0593Z" fill="#002E7A"/>
<path d="M72.3673 25.3716L44.5371 0.16687L62.1804 25.0565L59.5549 26.0017L55.0027 27.9988L72.3673 25.3716Z" fill="#2F7BC7"/>
<path d="M77.5983 27.367L44.5371 0.16687L72.2423 25.3716L63.4206 26.7369L55.0028 27.9988L77.5983 27.367Z" fill="#55AAFD"/>
<path d="M68.732 53.9952L79.3809 59.537C69.6289 66.2759 50.0007 79.6334 49.5754 79.1938C49.1501 78.7542 48.5494 78.5205 48.3021 78.4587L31.3862 77.3022L68.732 53.9952Z" fill="#CCE5FB"/>
<path d="M66.5289 83.3406L46.4049 81.3657L79.3803 59.5373L66.5289 83.3406Z" fill="#2F7BC7"/>
<path d="M75.4533 72.5561L105.84 69.7098L77.5706 65.1135L76.5036 64.8613L75.4533 72.5561Z" fill="#002E7A"/>
<path d="M70.0968 81.2092L105.84 69.7098L75.4631 72.5446L75.9573 69.7982L76.5039 64.8574L70.0968 81.2092Z" fill="#2F7BC7"/>
<path d="M65.7533 84.7416L105.84 69.7098L70.1593 81.1008L73.3878 72.7784L76.5038 64.8574L65.7533 84.7416Z" fill="#55AAFD"/>
<path d="M47.1863 63.786L37.0625 70.2373C36.1024 58.4225 34.3486 34.7452 34.9419 34.5966C35.5352 34.4481 36.038 34.0447 36.2152 33.8615L45.6747 19.7901L47.1863 63.786Z" fill="#CCE5FB"/>
<path d="M22.8746 47.2064L34.6468 30.7659L37.0631 70.2377L22.8746 47.2064Z" fill="#2F7BC7"/>
<path d="M27.7518 60.3267L15.0234 88.0653L33.1386 65.8816L33.8906 65.0836L27.7518 60.3267Z" fill="#002E7A"/>
<path d="M22.9363 51.3613L15.0234 88.0653L27.7569 60.3409L29.8882 62.1421L33.8938 65.0858L22.9363 51.3613Z" fill="#2F7BC7"/>
<path d="M22.0489 45.8334L15.0234 88.0653L22.9988 51.4696L28.592 58.4267L33.8938 65.0858L22.0489 45.8334Z" fill="#55AAFD"/>
</svg>
