<svg width="51" height="49" viewBox="0 0 51 49" fill="none" xmlns="http://www.w3.org/2000/svg">
<path d="M25.4948 18.1257L25.2578 12.7129C30.0924 15.0038 39.7427 19.6614 39.6669 19.9268C39.591 20.1923 39.6353 20.4798 39.6669 20.5904L43.0322 27.4632L25.4948 18.1257Z" fill="#CCE5FB"/>
<path d="M37.4616 12.3633L41.231 20.6746L25.2578 12.7117L37.4616 12.3633Z" fill="#2F7BC7"/>
<path d="M31.2313 11.3108L23.2617 0.0761719L27.8445 12.1627L27.9867 12.6367L31.2313 11.3108Z" fill="#002E7A"/>
<path d="M35.8223 11.4518L23.2617 0.0761719L31.2246 11.3096L30.0397 11.7361L27.9851 12.6375L35.8223 11.4518Z" fill="#2F7BC7"/>
<path d="M38.1831 12.3523L23.2617 0.0761719L35.7658 11.4518L31.7843 12.0679L27.9851 12.6375L38.1831 12.3523Z" fill="#55AAFD"/>
<path d="M34.1782 24.3699L38.9844 26.8711C34.5831 29.9125 25.7243 35.9411 25.5324 35.7427C25.3404 35.5444 25.0693 35.4389 24.9577 35.411L17.3231 34.889L34.1782 24.3699Z" fill="#CCE5FB"/>
<path d="M33.1871 37.6137L24.1046 36.7225L38.9873 26.8707L33.1871 37.6137Z" fill="#2F7BC7"/>
<path d="M37.2154 32.7455L50.9297 31.4609L38.171 29.3865L37.6894 29.2726L37.2154 32.7455Z" fill="#002E7A"/>
<path d="M34.7979 36.6509L50.9297 31.4609L37.2198 32.7403L37.4429 31.5008L37.6896 29.2709L34.7979 36.6509Z" fill="#2F7BC7"/>
<path d="M32.8375 38.2452L50.9297 31.4609L34.8261 36.602L36.2832 32.8459L37.6896 29.2709L32.8375 38.2452Z" fill="#55AAFD"/>
<path d="M24.4559 28.7895L19.8867 31.7012C19.4534 26.3688 18.6619 15.6826 18.9296 15.6156C19.1974 15.5485 19.4243 15.3665 19.5043 15.2838L23.7736 8.93301L24.4559 28.7895Z" fill="#CCE5FB"/>
<path d="M13.484 21.3062L18.7972 13.8861L19.8877 31.7008L13.484 21.3062Z" fill="#2F7BC7"/>
<path d="M15.6861 27.2269L9.94141 39.7461L18.1173 29.734L18.4566 29.3738L15.6861 27.2269Z" fill="#002E7A"/>
<path d="M13.5127 23.1806L9.94141 39.7461L15.6884 27.2333L16.6503 28.0462L18.4581 29.3748L13.5127 23.1806Z" fill="#2F7BC7"/>
<path d="M13.1122 20.6857L9.94141 39.7461L13.5409 23.2294L16.0653 26.3694L18.4581 29.3748L13.1122 20.6857Z" fill="#55AAFD"/>
</svg>
